<svg xmlns="http://www.w3.org/2000/svg" viewBox="0 0 1477.37 562.16"><defs><style>.cls-1{fill:#ff6050;opacity:0.15;}.cls-2{font-size:13px;fill:#fff;font-family:Metric-Semibold, Metric;font-weight:600;}.cls-3{letter-spacing:-0.01em;}.cls-4{letter-spacing:0em;}.cls-5{letter-spacing:0em;}.cls-6{letter-spacing:0em;}.cls-7{letter-spacing:0em;}.cls-8{letter-spacing:-0.01em;}.cls-9{letter-spacing:-0.01em;}.cls-10{letter-spacing:-0.01em;}.cls-11{letter-spacing:0em;}.cls-12{letter-spacing:0em;}.cls-13{letter-spacing:-0.01em;}</style></defs><title>Asset 4</title><g id="Layer_2" data-name="Layer 2"><g id="Red-Food"><rect class="cls-1" x="240.3" y="204.82" width="138.72" height="34.68" rx="17.34"/><rect class="cls-1" x="232.94" y="378" width="138.72" height="34.68" rx="17.34"/><rect class="cls-1" y="527.49" width="138.72" height="34.68" rx="17.34"/><rect class="cls-1" x="465.58" width="138.72" height="34.68" rx="17.34"/><rect class="cls-1" x="12.58" y="49" width="138.72" height="34.68" rx="17.34"/><rect class="cls-1" x="823.49" y="229.82" width="138.72" height="34.68" rx="17.34"/><rect class="cls-1" x="773.44" y="378" width="138.72" height="34.68" rx="17.34"/><rect class="cls-1" x="622.44" y="527.49" width="138.72" height="34.68" rx="17.34"/><rect class="cls-1" x="1006.08" width="138.72" height="34.68" rx="17.34"/><rect class="cls-1" x="1338.66" y="184.44" width="138.72" height="34.68" rx="17.34"/><rect class="cls-1" x="1256.45" y="348.37" width="138.72" height="34.68" rx="17.34"/><rect class="cls-1" x="1093.88" y="499.27" width="138.72" height="34.68" rx="17.34"/><rect class="cls-1" x="553.08" y="49" width="138.72" height="34.68" rx="17.34"/><text class="cls-2" transform="translate(518.86 20.78)">Indian</text><text class="cls-2" transform="translate(65.81 70.05)">I<tspan class="cls-3" x="3.18" y="0">t</tspan><tspan x="7.5" y="0">alian</tspan></text><text class="cls-2" transform="translate(279.16 225.75)">Vi<tspan class="cls-4" x="11" y="0">e</tspan><tspan x="16.93" y="0">tnam</tspan><tspan class="cls-5" x="43.72" y="0">e</tspan><tspan class="cls-6" x="49.72" y="0">s</tspan><tspan x="55.01" y="0">e</tspan></text><text class="cls-2" transform="translate(285.63 398.49)"><tspan class="cls-7">D</tspan><tspan x="7.97" y="0">onut</tspan></text><text class="cls-2" transform="translate(40.15 548.53)">P<tspan class="cls-8" x="7.18" y="0">r</tspan><tspan class="cls-9" x="11.6" y="0">ot</tspan><tspan x="22.27" y="0">ein Bar</tspan></text><text class="cls-2" transform="translate(604.29 70.05)">Ba<tspan class="cls-10" x="13.27" y="0">k</tspan><tspan x="19.43" y="0">ery</tspan></text><text class="cls-2" transform="translate(869.84 250.75)">Dim Sum</text><text class="cls-2" transform="translate(659.59 548.53)">Hambu<tspan class="cls-9" x="37.49" y="0">r</tspan><tspan x="41.96" y="0">ge</tspan><tspan class="cls-4" x="54.64" y="0">r</tspan><tspan x="59.15" y="0">s</tspan></text><text class="cls-2" transform="translate(1377.52 205.38)">Vi<tspan class="cls-4" x="11" y="0">e</tspan><tspan x="16.93" y="0">tnam</tspan><tspan class="cls-5" x="43.72" y="0">e</tspan><tspan class="cls-6" x="49.72" y="0">s</tspan><tspan x="55.01" y="0">e</tspan></text><text class="cls-2" transform="translate(1309.14 367.86)"><tspan class="cls-7">D</tspan><tspan x="7.97" y="0">onut</tspan></text><text class="cls-2" transform="translate(1134.03 521.31)">P<tspan class="cls-8" x="7.18" y="0">r</tspan><tspan class="cls-9" x="11.6" y="0">ot</tspan><tspan x="22.27" y="0">ein Bar</tspan></text><text class="cls-2" transform="translate(1052.84 19.78)">Burm<tspan class="cls-11" x="27.94" y="0">e</tspan><tspan class="cls-12" x="33.94" y="0">s</tspan><tspan x="39.23" y="0">e</tspan></text><text class="cls-2" transform="translate(811.53 398.49)">Glu<tspan class="cls-9" x="17.32" y="0">t</tspan><tspan x="21.72" y="0">en-</tspan><tspan class="cls-13" x="38.39" y="0">F</tspan><tspan class="cls-8" x="44.73" y="0">r</tspan><tspan class="cls-11" x="49.15" y="0">e</tspan><tspan x="55.16" y="0">e</tspan></text></g></g></svg>