<svg xmlns="http://www.w3.org/2000/svg" viewBox="0 0 1568.59 563.16"><defs><style>.cls-1{fill:#f8c740;opacity:0.28;}.cls-2{font-size:13px;fill:#fff;font-family:Metric-Semibold, Metric;font-weight:600;}.cls-3{letter-spacing:0.01em;}.cls-4{letter-spacing:-0.01em;}.cls-5{letter-spacing:-0.03em;}.cls-6{letter-spacing:-0.01em;}.cls-7{letter-spacing:0em;}.cls-8{letter-spacing:0em;}.cls-9{letter-spacing:-0.02em;}.cls-10{letter-spacing:0em;}.cls-11{letter-spacing:0em;}.cls-12{letter-spacing:-0.03em;}.cls-13{letter-spacing:0em;}.cls-14{letter-spacing:-0.01em;}</style></defs><title>Asset 3</title><g id="Layer_2" data-name="Layer 2"><g id="Yellow-Food"><rect class="cls-1" x="348.58" width="138.72" height="34.68" rx="17.34"/><rect class="cls-1" x="75.93" y="155.82" width="138.72" height="34.68" rx="17.34"/><rect class="cls-1" x="425.29" y="204.82" width="138.72" height="34.68" rx="17.34"/><rect class="cls-1" x="506.94" y="329" width="138.72" height="34.68" rx="17.34"/><rect class="cls-1" x="115.93" y="378" width="138.72" height="34.68" rx="17.34"/><rect class="cls-1" y="479.49" width="138.72" height="34.68" rx="17.34"/><rect class="cls-1" x="335.99" y="528.49" width="138.72" height="34.68" rx="17.34"/><rect class="cls-1" x="889.08" width="138.72" height="34.68" rx="17.34"/><rect class="cls-1" x="608.33" y="180.82" width="138.72" height="34.68" rx="17.34"/><rect class="cls-1" x="1008.48" y="229.82" width="138.72" height="34.68" rx="17.34"/><rect class="cls-1" x="1039.36" y="299.37" width="138.72" height="34.68" rx="17.34"/><rect class="cls-1" x="656.43" y="378" width="138.72" height="34.68" rx="17.34"/><rect class="cls-1" x="528.93" y="479.49" width="138.72" height="34.68" rx="17.34"/><rect class="cls-1" x="958.43" y="528.49" width="138.72" height="34.68" rx="17.34"/><rect class="cls-1" x="1360.52" width="138.72" height="34.68" rx="17.34"/><rect class="cls-1" x="1139.44" y="348.37" width="138.72" height="34.68" rx="17.34"/><rect class="cls-1" x="1429.88" y="500.27" width="138.72" height="34.68" rx="17.34"/><text class="cls-2" transform="translate(397.22 20.78)"><tspan class="cls-3">G</tspan><tspan x="7.88" y="0">erman</tspan></text><text class="cls-2" transform="translate(124.1 176.06)">M<tspan class="cls-4" x="9.41" y="0">e</tspan><tspan x="15.25" y="0">xican</tspan></text><text class="cls-2" transform="translate(476.34 226.75)"><tspan class="cls-5">K</tspan><tspan x="7.21" y="0">o</tspan><tspan class="cls-6" x="13.57" y="0">r</tspan><tspan x="17.99" y="0">ean</tspan></text><text class="cls-2" transform="translate(561.71 350.16)">Cajun</text><text class="cls-2" transform="translate(171.51 398.49)">Piz<tspan class="cls-7" x="15.86" y="0">z</tspan><tspan x="21.48" y="0">a</tspan></text><text class="cls-2" transform="translate(55.13 500.56)"><tspan class="cls-8">S</tspan><tspan x="6.53" y="0">alad</tspan></text><text class="cls-2" transform="translate(376.2 549.53)"><tspan class="cls-7">S</tspan><tspan x="6.44" y="0">t</tspan><tspan class="cls-9" x="10.93" y="0">r</tspan><tspan class="cls-10" x="15.3" y="0">a</tspan><tspan x="21.32" y="0">w</tspan><tspan class="cls-11" x="30.06" y="0">b</tspan><tspan x="36.86" y="0">erry</tspan></text><text class="cls-2" transform="translate(935.58 20.78)">B<tspan class="cls-9" x="7.19" y="0">r</tspan><tspan x="11.56" y="0">azilian</tspan></text><text class="cls-2" transform="translate(651.27 201.06)">Carib<tspan class="cls-11" x="27.4" y="0">b</tspan><tspan x="34.2" y="0">ean</tspan></text><text class="cls-2" transform="translate(1050.6 251.75)"><tspan class="cls-11">D</tspan><tspan x="7.97" y="0">ominican</tspan></text><text class="cls-2" transform="translate(1083.41 320.54)"><tspan class="cls-12">F</tspan><tspan x="6.17" y="0">a</tspan><tspan class="cls-7" x="12.26" y="0">s</tspan><tspan x="17.49" y="0">t </tspan><tspan class="cls-9" x="24.74" y="0">F</tspan><tspan class="cls-13" x="31.04" y="0">oo</tspan><tspan x="43.86" y="0">d</tspan></text><text class="cls-2" transform="translate(706.68 398.49)">Filipino</text><text class="cls-2" transform="translate(585.89 500.56)"><tspan class="cls-10">G</tspan><tspan x="7.7" y="0">y</tspan><tspan class="cls-6" x="14.03" y="0">r</tspan><tspan x="18.45" y="0">o</tspan></text><text class="cls-2" transform="translate(1003.62 549.53)">H<tspan class="cls-14" x="8.48" y="0">o</tspan><tspan x="14.74" y="0">t </tspan><tspan class="cls-11" x="22" y="0">Do</tspan><tspan x="36.37" y="0">gs</tspan></text><text class="cls-2" transform="translate(1405.49 20.78)">Jamaican</text><text class="cls-2" transform="translate(1195.02 368.86)">Piz<tspan class="cls-7" x="15.86" y="0">z</tspan><tspan x="21.48" y="0">a</tspan></text><text class="cls-2" transform="translate(1470.09 522.31)"><tspan class="cls-7">S</tspan><tspan x="6.44" y="0">t</tspan><tspan class="cls-9" x="10.93" y="0">r</tspan><tspan class="cls-10" x="15.3" y="0">a</tspan><tspan x="21.32" y="0">w</tspan><tspan class="cls-11" x="30.06" y="0">b</tspan><tspan x="36.86" y="0">erry</tspan></text></g></g></svg>