<svg xmlns="http://www.w3.org/2000/svg" viewBox="0 0 1452.66 612.16"><defs><style>.cls-1{fill:#cfe76b;opacity:0.33;}.cls-2{font-size:13px;fill:#fff;font-family:Metric-Semibold, Metric;font-weight:600;}.cls-3{letter-spacing:0em;}.cls-4{letter-spacing:-0.01em;}.cls-5{letter-spacing:0em;}.cls-6{letter-spacing:0em;}.cls-7{letter-spacing:-0.01em;}.cls-8{letter-spacing:-0.01em;}.cls-9{letter-spacing:-0.03em;}.cls-10{letter-spacing:0em;}.cls-11{letter-spacing:-0.02em;}.cls-12{letter-spacing:-0.02em;}.cls-13{letter-spacing:-0.06em;}.cls-14{letter-spacing:-0.02em;}.cls-15{letter-spacing:0em;}.cls-16{letter-spacing:0em;}.cls-17{letter-spacing:-0.07em;}.cls-18{letter-spacing:0em;}.cls-19{letter-spacing:-0.01em;}.cls-20{letter-spacing:0em;}.cls-21{letter-spacing:-0.01em;}.cls-22{letter-spacing:-0.01em;}</style></defs><title>Asset 2</title><g id="Layer_2" data-name="Layer 2"><g id="Green-Food"><rect class="cls-1" x="151" y="49" width="138.72" height="34.68" rx="17.34"/><rect class="cls-1" width="138.72" height="34.68" rx="17.34"/><rect class="cls-1" x="151" width="138.72" height="34.68" rx="17.34"/><rect class="cls-1" x="302" width="138.72" height="34.68" rx="17.34"/><rect class="cls-1" x="151" y="98" width="138.72" height="34.68" rx="17.34"/><rect class="cls-1" x="302" y="98" width="138.72" height="34.68" rx="17.34"/><rect class="cls-1" x="180.36" y="204.82" width="138.72" height="34.68" rx="17.34"/><rect class="cls-1" x="331.36" y="204.82" width="138.72" height="34.68" rx="17.34"/><rect class="cls-1" x="76.72" y="253.82" width="138.72" height="34.68" rx="17.34"/><rect class="cls-1" x="158.36" y="378" width="138.72" height="34.68" rx="17.34"/><rect class="cls-1" x="309.36" y="378" width="138.72" height="34.68" rx="17.34"/><rect class="cls-1" x="371.36" y="427" width="138.72" height="34.68" rx="17.34"/><rect class="cls-1" x="104.42" y="528.49" width="138.72" height="34.68" rx="17.34"/><rect class="cls-1" x="255.42" y="528.49" width="138.72" height="34.68" rx="17.34"/><rect class="cls-1" x="138.42" y="577.49" width="138.72" height="34.68" rx="17.34"/><rect class="cls-1" x="691.5" y="49" width="138.72" height="34.68" rx="17.34"/><rect class="cls-1" x="540.5" width="138.72" height="34.68" rx="17.34"/><rect class="cls-1" x="691.5" width="138.72" height="34.68" rx="17.34"/><rect class="cls-1" x="842.5" width="138.72" height="34.68" rx="17.34"/><rect class="cls-1" x="766.65" y="98" width="138.72" height="34.68" rx="17.34"/><rect class="cls-1" x="917.65" y="98" width="138.72" height="34.68" rx="17.34"/><rect class="cls-1" x="712.75" y="229.82" width="138.72" height="34.68" rx="17.34"/><rect class="cls-1" x="863.75" y="229.82" width="138.72" height="34.68" rx="17.34"/><rect class="cls-1" x="659.9" y="278.82" width="138.72" height="34.68" rx="17.34"/><rect class="cls-1" x="679.22" y="378" width="138.72" height="34.68" rx="17.34"/><rect class="cls-1" x="830.22" y="378" width="138.72" height="34.68" rx="17.34"/><rect class="cls-1" x="911.86" y="427" width="138.72" height="34.68" rx="17.34"/><rect class="cls-1" x="633.36" y="528.49" width="138.72" height="34.68" rx="17.34"/><rect class="cls-1" x="784.36" y="528.49" width="138.72" height="34.68" rx="17.34"/><rect class="cls-1" x="760.86" y="577.49" width="138.72" height="34.68" rx="17.34"/><rect class="cls-1" x="1162.94" y="49" width="138.72" height="34.68" rx="17.34"/><rect class="cls-1" x="1162.94" width="138.72" height="34.68" rx="17.34"/><rect class="cls-1" x="1313.94" width="138.72" height="34.68" rx="17.34"/><rect class="cls-1" x="1098.31" y="98" width="138.72" height="34.68" rx="17.34"/><rect class="cls-1" x="1249.31" y="98" width="138.72" height="34.68" rx="17.34"/><rect class="cls-1" x="1105.72" y="184.44" width="138.72" height="34.68" rx="17.34"/><rect class="cls-1" x="1256.72" y="184.44" width="138.72" height="34.68" rx="17.34"/><rect class="cls-1" x="1175.07" y="233.44" width="138.72" height="34.68" rx="17.34"/><rect class="cls-1" x="1162.22" y="348.37" width="138.72" height="34.68" rx="17.34"/><rect class="cls-1" x="1313.22" y="348.37" width="138.72" height="34.68" rx="17.34"/><rect class="cls-1" x="1104.8" y="500.27" width="138.72" height="34.68" rx="17.34"/><rect class="cls-1" x="1255.8" y="500.27" width="138.72" height="34.68" rx="17.34"/><rect class="cls-1" x="1232.3" y="549.27" width="138.72" height="34.68" rx="17.34"/><text class="cls-2" transform="translate(44.72 20.3)">American</text><text class="cls-2" transform="translate(185.51 20.3)">BBQ C<tspan class="cls-3" x="32.43" y="0">a</tspan><tspan class="cls-4" x="38.47" y="0">t</tspan><tspan x="42.87" y="0">ering</tspan></text><text class="cls-2" transform="translate(351.15 20.3)">Chin<tspan class="cls-5" x="23.14" y="0">e</tspan><tspan class="cls-6" x="29.14" y="0">s</tspan><tspan x="34.44" y="0">e</tspan></text><text class="cls-2" transform="translate(202.79 69.78)"><tspan class="cls-7">F</tspan><tspan class="cls-8" x="6.34" y="0">r</tspan><tspan x="10.76" y="0">ench</tspan></text><text class="cls-2" transform="translate(208.05 119.05)"><tspan class="cls-9">K</tspan><tspan class="cls-10" x="7.21" y="0">e</tspan><tspan class="cls-4" x="13.14" y="0">t</tspan><tspan x="17.55" y="0">o</tspan></text><text class="cls-2" transform="translate(333.47 119.05)">M<tspan class="cls-5" x="9.41" y="0">e</tspan><tspan x="15.42" y="0">di</tspan><tspan class="cls-4" x="25.18" y="0">t</tspan><tspan x="29.59" y="0">er</tspan><tspan class="cls-11" x="40.13" y="0">r</tspan><tspan x="44.5" y="0">anean</tspan></text><text class="cls-2" transform="translate(225.67 225.36)">Ja<tspan class="cls-6" x="11.41" y="0">p</tspan><tspan x="18.17" y="0">an</tspan><tspan class="cls-5" x="30.82" y="0">e</tspan><tspan class="cls-6" x="36.83" y="0">s</tspan><tspan x="42.12" y="0">e</tspan></text><text class="cls-2" transform="translate(385.13 225.36)"><tspan class="cls-12">P</tspan><tspan x="6.93" y="0">olish</tspan></text><text class="cls-2" transform="translate(134.51 274.75)">Thai</text><text class="cls-2" transform="translate(215.55 399.16)"><tspan class="cls-13">T</tspan><tspan x="6.63" y="0">aco</tspan></text><text class="cls-2" transform="translate(363.84 399.16)"><tspan class="cls-14">P</tspan><tspan x="6.88" y="0">al</tspan><tspan class="cls-15" x="15.98" y="0">e</tspan><tspan x="21.98" y="0">o</tspan></text><text class="cls-2" transform="translate(422.92 447.49)"><tspan class="cls-16">R</tspan><tspan x="7.31" y="0">amen</tspan></text><text class="cls-2" transform="translate(155.35 549.56)"><tspan class="cls-17">Y</tspan><tspan class="cls-18" x="6.73" y="0">o</tspan><tspan x="13.14" y="0">gu</tspan><tspan class="cls-6" x="26.38" y="0">r</tspan><tspan x="30.95" y="0">t</tspan></text><text class="cls-2" transform="translate(305.5 549.56)">Banana</text><text class="cls-2" transform="translate(188.06 598.53)">O<tspan class="cls-11" x="8.32" y="0">r</tspan><tspan x="12.69" y="0">ange</tspan></text><text class="cls-2" transform="translate(579.06 20.3)">A<tspan class="cls-4" x="8.15" y="0">r</tspan><tspan x="12.62" y="0">gentinian</tspan></text><text class="cls-2" transform="translate(734.14 20.3)"><tspan class="cls-19">A</tspan><tspan x="8.03" y="0">u</tspan><tspan class="cls-3" x="14.57" y="0">s</tspan><tspan x="19.8" y="0">t</tspan><tspan class="cls-11" x="24.3" y="0">r</tspan><tspan x="28.67" y="0">alian</tspan></text><text class="cls-2" transform="translate(900.52 20.3)">BBQ</text><text class="cls-2" transform="translate(741.56 69.78)"><tspan class="cls-18">B</tspan><tspan x="7.24" y="0">elgian</tspan></text><text class="cls-2" transform="translate(814.69 119.05)">Burri<tspan class="cls-4" x="25.87" y="0">t</tspan><tspan class="cls-6" x="30.28" y="0">o</tspan><tspan x="36.65" y="0">s</tspan></text><text class="cls-2" transform="translate(959.88 119.05)">Can<tspan class="cls-4" x="19.64" y="0">t</tspan><tspan x="24.05" y="0">on</tspan><tspan class="cls-5" x="36.97" y="0">e</tspan><tspan class="cls-6" x="42.98" y="0">s</tspan><tspan x="48.27" y="0">e</tspan></text><text class="cls-2" transform="translate(754.72 250.36)">Colombian</text><text class="cls-2" transform="translate(915.37 250.36)">C<tspan class="cls-8" x="6.99" y="0">r</tspan><tspan x="11.41" y="0">e</tspan><tspan class="cls-18" x="17.39" y="0">p</tspan><tspan class="cls-5" x="24.19" y="0">e</tspan><tspan x="30.2" y="0">s</tspan></text><text class="cls-2" transform="translate(712.82 299.75)"><tspan class="cls-3">C</tspan><tspan x="6.94" y="0">u</tspan><tspan class="cls-6" x="13.48" y="0">b</tspan><tspan x="20.24" y="0">an</tspan></text><text class="cls-2" transform="translate(725.32 399.16)"><tspan class="cls-3">E</tspan><tspan x="6.66" y="0">gy</tspan><tspan class="cls-4" x="19.68" y="0">p</tspan><tspan x="26.34" y="0">tian</tspan></text><text class="cls-2" transform="translate(874.09 399.16)">Ethiopian</text><text class="cls-2" transform="translate(970.53 447.49)">Grill</text><text class="cls-2" transform="translate(683.14 549.56)">Haitian</text><text class="cls-2" transform="translate(840.38 549.56)">Halal</text><text class="cls-2" transform="translate(805.58 598.53)">H<tspan class="cls-20" x="8.48" y="0">a</tspan><tspan class="cls-21" x="14.5" y="0">w</tspan><tspan x="23.1" y="0">aiian</tspan></text><text class="cls-2" transform="translate(1207.15 20.3)">Ice C<tspan class="cls-8" x="24.18" y="0">r</tspan><tspan x="28.6" y="0">eam</tspan></text><text class="cls-2" transform="translate(1355.12 20.3)">Indon<tspan class="cls-5" x="29.42" y="0">e</tspan><tspan x="35.42" y="0">sian</tspan></text><text class="cls-2" transform="translate(1221 69.78)">Irish</text><text class="cls-2" transform="translate(1141.47 119.05)">Mal<tspan class="cls-19" x="18.51" y="0">a</tspan><tspan class="cls-22" x="24.48" y="0">y</tspan><tspan x="30.73" y="0">sian</tspan></text><text class="cls-2" transform="translate(1295 119.05)">Ne<tspan class="cls-6" x="14.2" y="0">p</tspan><tspan x="20.96" y="0">al</tspan><tspan class="cls-5" x="30.05" y="0">e</tspan><tspan class="cls-6" x="36.06" y="0">s</tspan><tspan x="41.35" y="0">e</tspan></text><text class="cls-2" transform="translate(1151.02 204.98)">Ja<tspan class="cls-6" x="11.41" y="0">p</tspan><tspan x="18.17" y="0">an</tspan><tspan class="cls-5" x="30.82" y="0">e</tspan><tspan class="cls-6" x="36.83" y="0">s</tspan><tspan x="42.12" y="0">e</tspan></text><text class="cls-2" transform="translate(1315.44 204.98)"><tspan class="cls-12">P</tspan><tspan x="6.93" y="0">olish</tspan></text><text class="cls-2" transform="translate(1232.86 254.38)">Thai</text><text class="cls-2" transform="translate(1219.42 369.54)"><tspan class="cls-13">T</tspan><tspan x="6.63" y="0">aco</tspan></text><text class="cls-2" transform="translate(1367.71 369.54)"><tspan class="cls-14">P</tspan><tspan x="6.88" y="0">al</tspan><tspan class="cls-15" x="15.98" y="0">e</tspan><tspan x="21.98" y="0">o</tspan></text><text class="cls-2" transform="translate(1155.73 522.35)"><tspan class="cls-17">Y</tspan><tspan class="cls-18" x="6.73" y="0">o</tspan><tspan x="13.14" y="0">gu</tspan><tspan class="cls-6" x="26.38" y="0">r</tspan><tspan x="30.95" y="0">t</tspan></text><text class="cls-2" transform="translate(1305.87 522.35)">Banana</text><text class="cls-2" transform="translate(1281.95 571.31)">O<tspan class="cls-11" x="8.32" y="0">r</tspan><tspan x="12.69" y="0">ange</tspan></text></g></g></svg>